<?xml version="1.0" encoding="UTF-8" standalone="no"?><svg xmlns="http://www.w3.org/2000/svg" xmlns:xlink="http://www.w3.org/1999/xlink" contentStyleType="text/css" height="174px" preserveAspectRatio="none" style="width:672px;height:174px;background:#FFFFFF;" version="1.1" viewBox="0 0 672 174" width="672px" zoomAndPan="magnify"><defs/><g><!--MD5=[3fee75583bb7a64f68d843a3c9534ab3]
class Node--><g id="elem_Node"><rect codeLine="2" fill="#F1F1F1" height="32" id="Node" rx="2.5" ry="2.5" style="stroke:#181818;stroke-width:0.5;" width="65" x="426.5" y="7"/><ellipse cx="441.5" cy="23" fill="#B4A7E5" rx="11" ry="11" style="stroke:#181818;stroke-width:1.0;"/><path d="M437.5313,29.5 L437.5313,27.7969 L439.8906,27.5313 L439.8906,19.3281 L437.5313,19.0625 L437.5313,17.3594 L444.6719,17.3594 L444.6719,19.0625 L442.25,19.3281 L442.25,27.5313 L444.6719,27.7969 L444.6719,29.5 L437.5313,29.5 Z " fill="#000000"/><text fill="#000000" font-family="sans-serif" font-size="14" font-style="italic" lengthAdjust="spacing" textLength="33" x="455.5" y="28.432">Node</text></g><!--MD5=[9e02724bd419440752bada4e652e2ba0]
class SmithNode--><g id="elem_SmithNode"><rect codeLine="5" fill="#F1F1F1" height="67.0679" id="SmithNode" rx="2.5" ry="2.5" style="stroke:#181818;stroke-width:0.5;" width="120" x="399" y="100"/><ellipse cx="419.85" cy="116" fill="#ADD1B2" rx="11" ry="11" style="stroke:#181818;stroke-width:1.0;"/><path d="M419.3188,122.9219 Q417.5688,122.9219 416.4281,122.1875 Q415.3031,121.4375 414.7406,120.0938 Q414.1938,118.7344 414.1938,116.9375 Q414.1938,114.9063 414.85,113.4531 Q415.5063,112 416.7875,111.2188 Q418.0688,110.4375 419.9438,110.4375 Q420.8344,110.4375 421.5063,110.625 Q422.1781,110.7969 422.8656,111.1406 L422.0531,113.1563 Q421.4281,112.8438 420.8813,112.7188 Q420.35,112.5938 419.8656,112.5938 Q418.6938,112.5938 417.9906,113.125 Q417.2875,113.6563 416.9906,114.6094 Q416.6938,115.5625 416.6938,116.8281 Q416.6938,118.8438 417.4125,119.8125 Q418.1313,120.7656 419.725,120.7656 Q420.3188,120.7656 420.9438,120.6094 Q421.5688,120.4531 422.3969,120.0781 L422.3969,122.2969 Q421.6625,122.6094 420.8656,122.7656 Q420.0844,122.9219 419.3188,122.9219 Z " fill="#000000"/><text fill="#000000" font-family="sans-serif" font-size="14" lengthAdjust="spacing" textLength="75" x="435.15" y="121.432">SmithNode</text><line style="stroke:#181818;stroke-width:0.5;" x1="400" x2="518" y1="132" y2="132"/><text fill="#000000" font-family="sans-serif" font-size="14" lengthAdjust="spacing" textLength="108" x="405" y="150.9659">Noeud forgeron</text><line style="stroke:#181818;stroke-width:1.0;stroke-dasharray:1.0,2.0;" x1="400" x2="518" y1="159.0679" y2="159.0679"/></g><!--MD5=[89cd04266f093296df0f8b32007e6bac]
class MirrorNode--><g id="elem_MirrorNode"><rect codeLine="12" fill="#F1F1F1" height="67.0679" id="MirrorNode" rx="2.5" ry="2.5" style="stroke:#181818;stroke-width:0.5;" width="111" x="554.5" y="100"/><ellipse cx="569.5" cy="116" fill="#ADD1B2" rx="11" ry="11" style="stroke:#181818;stroke-width:1.0;"/><path d="M568.9688,122.9219 Q567.2188,122.9219 566.0781,122.1875 Q564.9531,121.4375 564.3906,120.0938 Q563.8438,118.7344 563.8438,116.9375 Q563.8438,114.9063 564.5,113.4531 Q565.1563,112 566.4375,111.2188 Q567.7188,110.4375 569.5938,110.4375 Q570.4844,110.4375 571.1563,110.625 Q571.8281,110.7969 572.5156,111.1406 L571.7031,113.1563 Q571.0781,112.8438 570.5313,112.7188 Q570,112.5938 569.5156,112.5938 Q568.3438,112.5938 567.6406,113.125 Q566.9375,113.6563 566.6406,114.6094 Q566.3438,115.5625 566.3438,116.8281 Q566.3438,118.8438 567.0625,119.8125 Q567.7813,120.7656 569.375,120.7656 Q569.9688,120.7656 570.5938,120.6094 Q571.2188,120.4531 572.0469,120.0781 L572.0469,122.2969 Q571.3125,122.6094 570.5156,122.7656 Q569.7344,122.9219 568.9688,122.9219 Z " fill="#000000"/><text fill="#000000" font-family="sans-serif" font-size="14" lengthAdjust="spacing" textLength="79" x="583.5" y="121.432">MirrorNode</text><line style="stroke:#181818;stroke-width:0.5;" x1="555.5" x2="664.5" y1="132" y2="132"/><text fill="#000000" font-family="sans-serif" font-size="14" lengthAdjust="spacing" textLength="96" x="560.5" y="150.9659">Noeud mirroir</text><line style="stroke:#181818;stroke-width:1.0;stroke-dasharray:1.0,2.0;" x1="555.5" x2="664.5" y1="159.0679" y2="159.0679"/></g><!--MD5=[12e1e4e92203f9a063735bde215c30f6]
class PruningArchiveNode--><g id="elem_PruningArchiveNode"><rect codeLine="19" fill="#F1F1F1" height="67.0679" id="PruningArchiveNode" rx="2.5" ry="2.5" style="stroke:#181818;stroke-width:0.5;" width="172" x="7" y="100"/><ellipse cx="22" cy="116" fill="#ADD1B2" rx="11" ry="11" style="stroke:#181818;stroke-width:1.0;"/><path d="M21.4688,122.9219 Q19.7188,122.9219 18.5781,122.1875 Q17.4531,121.4375 16.8906,120.0938 Q16.3438,118.7344 16.3438,116.9375 Q16.3438,114.9063 17,113.4531 Q17.6563,112 18.9375,111.2188 Q20.2188,110.4375 22.0938,110.4375 Q22.9844,110.4375 23.6563,110.625 Q24.3281,110.7969 25.0156,111.1406 L24.2031,113.1563 Q23.5781,112.8438 23.0313,112.7188 Q22.5,112.5938 22.0156,112.5938 Q20.8438,112.5938 20.1406,113.125 Q19.4375,113.6563 19.1406,114.6094 Q18.8438,115.5625 18.8438,116.8281 Q18.8438,118.8438 19.5625,119.8125 Q20.2813,120.7656 21.875,120.7656 Q22.4688,120.7656 23.0938,120.6094 Q23.7188,120.4531 24.5469,120.0781 L24.5469,122.2969 Q23.8125,122.6094 23.0156,122.7656 Q22.2344,122.9219 21.4688,122.9219 Z " fill="#000000"/><text fill="#000000" font-family="sans-serif" font-size="14" lengthAdjust="spacing" textLength="140" x="36" y="121.432">PruningArchiveNode</text><line style="stroke:#181818;stroke-width:0.5;" x1="8" x2="178" y1="132" y2="132"/><text fill="#000000" font-family="sans-serif" font-size="14" lengthAdjust="spacing" textLength="98" x="13" y="150.9659">Noeud archive</text><line style="stroke:#181818;stroke-width:1.0;stroke-dasharray:1.0,2.0;" x1="8" x2="178" y1="159.0679" y2="159.0679"/></g><!--MD5=[3f64496d170fb13c4bb7b49868180417]
class Indexer--><g id="elem_Indexer"><rect codeLine="25" fill="#F1F1F1" height="32" id="Indexer" rx="2.5" ry="2.5" style="stroke:#181818;stroke-width:0.5;" width="84" x="280" y="117.5"/><ellipse cx="295" cy="133.5" fill="#ADD1B2" rx="11" ry="11" style="stroke:#181818;stroke-width:1.0;"/><path d="M294.4688,140.4219 Q292.7188,140.4219 291.5781,139.6875 Q290.4531,138.9375 289.8906,137.5938 Q289.3438,136.2344 289.3438,134.4375 Q289.3438,132.4063 290,130.9531 Q290.6563,129.5 291.9375,128.7188 Q293.2188,127.9375 295.0938,127.9375 Q295.9844,127.9375 296.6563,128.125 Q297.3281,128.2969 298.0156,128.6406 L297.2031,130.6563 Q296.5781,130.3438 296.0313,130.2188 Q295.5,130.0938 295.0156,130.0938 Q293.8438,130.0938 293.1406,130.625 Q292.4375,131.1563 292.1406,132.1094 Q291.8438,133.0625 291.8438,134.3281 Q291.8438,136.3438 292.5625,137.3125 Q293.2813,138.2656 294.875,138.2656 Q295.4688,138.2656 296.0938,138.1094 Q296.7188,137.9531 297.5469,137.5781 L297.5469,139.7969 Q296.8125,140.1094 296.0156,140.2656 Q295.2344,140.4219 294.4688,140.4219 Z " fill="#000000"/><text fill="#000000" font-family="sans-serif" font-size="14" lengthAdjust="spacing" textLength="52" x="309" y="138.932">Indexer</text></g><!--MD5=[36df533e533fa74cf7a885d0bce2999b]
reverse link Node to SmithNode--><g id="link_Node_SmithNode"><path codeLine="9" d="M459,59.33 C459,72.32 459,86.95 459,99.71 " fill="none" id="Node-backto-SmithNode" style="stroke:#181818;stroke-width:1.0;"/><polygon fill="none" points="452,59.09,459,39.09,466,59.09,452,59.09" style="stroke:#181818;stroke-width:1.0;"/></g><!--MD5=[e03658ea0bdf90b5942bb10c8fa654b2]
reverse link Node to MirrorNode--><g id="link_Node_MirrorNode"><path codeLine="16" d="M496.27,50.78 C516.95,65.64 542.83,84.24 564.68,99.93 " fill="none" id="Node-backto-MirrorNode" style="stroke:#181818;stroke-width:1.0;"/><polygon fill="none" points="492.15,56.44,480,39.09,500.32,45.07,492.15,56.44" style="stroke:#181818;stroke-width:1.0;"/></g><!--MD5=[ff9fd34b972c67a28b7bff03fa452abc]
reverse link Node to PruningArchiveNode--><g id="link_Node_PruningArchiveNode"><path codeLine="23" d="M406.95,39.43 C347.68,57 249.93,85.98 179.23,106.94 " fill="none" id="Node-backto-PruningArchiveNode" style="stroke:#181818;stroke-width:1.0;"/><polygon fill="none" points="405.03,32.7,426.2,33.72,409.01,46.12,405.03,32.7" style="stroke:#181818;stroke-width:1.0;"/></g><!--MD5=[fe669785451b30b4efba96349934d62a]
reverse link PruningArchiveNode to Indexer--><g id="link_PruningArchiveNode_Indexer"><path codeLine="28" d="M184.51,133.5 C217.44,133.5 253.02,133.5 279.73,133.5 " fill="none" id="PruningArchiveNode-backto-Indexer" style="stroke:#181818;stroke-width:1.0;stroke-dasharray:7.0,7.0;"/><polygon fill="#181818" points="179.25,133.5,188.25,137.5,184.25,133.5,188.25,129.5,179.25,133.5" style="stroke:#181818;stroke-width:1.0;"/><text fill="#000000" font-family="sans-serif" font-size="13" lengthAdjust="spacing" textLength="64" x="197.5" y="126.397">Index data</text></g></g></svg>