<?xml version="1.0" encoding="UTF-8" standalone="no"?><svg xmlns="http://www.w3.org/2000/svg" xmlns:xlink="http://www.w3.org/1999/xlink" contentStyleType="text/css" height="830px" preserveAspectRatio="none" style="width:1100px;height:830px;background:#FFFFFF;" version="1.1" viewBox="0 0 1100 830" width="1100px" zoomAndPan="magnify"><defs/><g><line style="stroke:#181818;stroke-width:0.5;stroke-dasharray:5.0,5.0;" x1="71" x2="71" y1="84.0679" y2="747.0702"/><line style="stroke:#181818;stroke-width:0.5;stroke-dasharray:5.0,5.0;" x1="461.5" x2="461.5" y1="84.0679" y2="747.0702"/><line style="stroke:#181818;stroke-width:0.5;stroke-dasharray:5.0,5.0;" x1="547" x2="547" y1="84.0679" y2="747.0702"/><line style="stroke:#181818;stroke-width:0.5;stroke-dasharray:5.0,5.0;" x1="594" x2="594" y1="84.0679" y2="747.0702"/><line style="stroke:#181818;stroke-width:0.5;stroke-dasharray:5.0,5.0;" x1="635" x2="635" y1="84.0679" y2="747.0702"/><line style="stroke:#181818;stroke-width:0.5;stroke-dasharray:5.0,5.0;" x1="843" x2="843" y1="84.0679" y2="747.0702"/><text fill="#000000" font-family="sans-serif" font-size="14" lengthAdjust="spacing" textLength="127" x="5" y="79.9659">Duniter Blockchain</text><path d="M53.5,29 C53.5,19 71.5,19 71.5,19 C71.5,19 89.5,19 89.5,29 L89.5,55 C89.5,65 71.5,65 71.5,65 C71.5,65 53.5,65 53.5,55 L53.5,29 " fill="#E2E2F0" style="stroke:#181818;stroke-width:1.5;"/><path d="M53.5,29 C53.5,39 71.5,39 71.5,39 C71.5,39 89.5,39 89.5,29 " fill="none" style="stroke:#181818;stroke-width:1.5;"/><text fill="#000000" font-family="sans-serif" font-size="14" lengthAdjust="spacing" textLength="127" x="5" y="761.0361">Duniter Blockchain</text><path d="M53.5,775.1381 C53.5,765.1381 71.5,765.1381 71.5,765.1381 C71.5,765.1381 89.5,765.1381 89.5,775.1381 L89.5,801.1381 C89.5,811.1381 71.5,811.1381 71.5,811.1381 C71.5,811.1381 53.5,811.1381 53.5,801.1381 L53.5,775.1381 " fill="#E2E2F0" style="stroke:#181818;stroke-width:1.5;"/><path d="M53.5,775.1381 C53.5,785.1381 71.5,785.1381 71.5,785.1381 C71.5,785.1381 89.5,785.1381 89.5,775.1381 " fill="none" style="stroke:#181818;stroke-width:1.5;"/><text fill="#000000" font-family="sans-serif" font-size="14" lengthAdjust="spacing" textLength="32" x="442.5" y="79.9659">Alice</text><ellipse cx="461.5" cy="13.5" fill="#E2E2F0" rx="8" ry="8" style="stroke:#181818;stroke-width:0.5;"/><path d="M461.5,21.5 L461.5,48.5 M448.5,29.5 L474.5,29.5 M461.5,48.5 L448.5,63.5 M461.5,48.5 L474.5,63.5 " fill="none" style="stroke:#181818;stroke-width:0.5;"/><text fill="#000000" font-family="sans-serif" font-size="14" lengthAdjust="spacing" textLength="32" x="442.5" y="761.0361">Alice</text><ellipse cx="461.5" cy="773.6381" fill="#E2E2F0" rx="8" ry="8" style="stroke:#181818;stroke-width:0.5;"/><path d="M461.5,781.6381 L461.5,808.6381 M448.5,789.6381 L474.5,789.6381 M461.5,808.6381 L448.5,823.6381 M461.5,808.6381 L474.5,823.6381 " fill="none" style="stroke:#181818;stroke-width:0.5;"/><text fill="#000000" font-family="sans-serif" font-size="14" lengthAdjust="spacing" textLength="39" x="525" y="79.9659">Adam</text><ellipse cx="547.5" cy="13.5" fill="#E2E2F0" rx="8" ry="8" style="stroke:#181818;stroke-width:0.5;"/><path d="M547.5,21.5 L547.5,48.5 M534.5,29.5 L560.5,29.5 M547.5,48.5 L534.5,63.5 M547.5,48.5 L560.5,63.5 " fill="none" style="stroke:#181818;stroke-width:0.5;"/><text fill="#000000" font-family="sans-serif" font-size="14" lengthAdjust="spacing" textLength="39" x="525" y="761.0361">Adam</text><ellipse cx="547.5" cy="773.6381" fill="#E2E2F0" rx="8" ry="8" style="stroke:#181818;stroke-width:0.5;"/><path d="M547.5,781.6381 L547.5,808.6381 M534.5,789.6381 L560.5,789.6381 M547.5,808.6381 L534.5,823.6381 M547.5,808.6381 L560.5,823.6381 " fill="none" style="stroke:#181818;stroke-width:0.5;"/><text fill="#000000" font-family="sans-serif" font-size="14" lengthAdjust="spacing" textLength="23" x="580" y="79.9659">Eve</text><ellipse cx="594.5" cy="13.5" fill="#E2E2F0" rx="8" ry="8" style="stroke:#181818;stroke-width:0.5;"/><path d="M594.5,21.5 L594.5,48.5 M581.5,29.5 L607.5,29.5 M594.5,48.5 L581.5,63.5 M594.5,48.5 L607.5,63.5 " fill="none" style="stroke:#181818;stroke-width:0.5;"/><text fill="#000000" font-family="sans-serif" font-size="14" lengthAdjust="spacing" textLength="23" x="580" y="761.0361">Eve</text><ellipse cx="594.5" cy="773.6381" fill="#E2E2F0" rx="8" ry="8" style="stroke:#181818;stroke-width:0.5;"/><path d="M594.5,781.6381 L594.5,808.6381 M581.5,789.6381 L607.5,789.6381 M594.5,808.6381 L581.5,823.6381 M594.5,808.6381 L607.5,823.6381 " fill="none" style="stroke:#181818;stroke-width:0.5;"/><text fill="#000000" font-family="sans-serif" font-size="14" lengthAdjust="spacing" textLength="26" x="619" y="79.9659">Bob</text><ellipse cx="635" cy="13.5" fill="#E2E2F0" rx="8" ry="8" style="stroke:#181818;stroke-width:0.5;"/><path d="M635,21.5 L635,48.5 M622,29.5 L648,29.5 M635,48.5 L622,63.5 M635,48.5 L648,63.5 " fill="none" style="stroke:#181818;stroke-width:0.5;"/><text fill="#000000" font-family="sans-serif" font-size="14" lengthAdjust="spacing" textLength="26" x="619" y="761.0361">Bob</text><ellipse cx="635" cy="773.6381" fill="#E2E2F0" rx="8" ry="8" style="stroke:#181818;stroke-width:0.5;"/><path d="M635,781.6381 L635,808.6381 M622,789.6381 L648,789.6381 M635,808.6381 L622,823.6381 M635,808.6381 L648,823.6381 " fill="none" style="stroke:#181818;stroke-width:0.5;"/><text fill="#000000" font-family="sans-serif" font-size="14" lengthAdjust="spacing" textLength="87" x="797" y="79.9659">Adam's node</text><path d="M825.5,29 C825.5,19 843.5,19 843.5,19 C843.5,19 861.5,19 861.5,29 L861.5,55 C861.5,65 843.5,65 843.5,65 C843.5,65 825.5,65 825.5,55 L825.5,29 " fill="#E2E2F0" style="stroke:#181818;stroke-width:1.5;"/><path d="M825.5,29 C825.5,39 843.5,39 843.5,39 C843.5,39 861.5,39 861.5,29 " fill="none" style="stroke:#181818;stroke-width:1.5;"/><text fill="#000000" font-family="sans-serif" font-size="14" lengthAdjust="spacing" textLength="87" x="797" y="761.0361">Adam's node</text><path d="M825.5,775.1381 C825.5,765.1381 843.5,765.1381 843.5,765.1381 C843.5,765.1381 861.5,765.1381 861.5,775.1381 L861.5,801.1381 C861.5,811.1381 843.5,811.1381 843.5,811.1381 C843.5,811.1381 825.5,811.1381 825.5,801.1381 L825.5,775.1381 " fill="#E2E2F0" style="stroke:#181818;stroke-width:1.5;"/><path d="M825.5,775.1381 C825.5,785.1381 843.5,785.1381 843.5,785.1381 C843.5,785.1381 861.5,785.1381 861.5,775.1381 " fill="none" style="stroke:#181818;stroke-width:1.5;"/><polygon fill="#181818" points="82.5,113.7739,72.5,117.7739,82.5,121.7739,78.5,117.7739" style="stroke:#181818;stroke-width:1.0;"/><line style="stroke:#181818;stroke-width:1.0;stroke-dasharray:2.0,2.0;" x1="76.5" x2="460.5" y1="117.7739" y2="117.7739"/><text fill="#000000" font-family="sans-serif" font-size="13" lengthAdjust="spacing" textLength="108" x="88.5" y="111.9649">smith invite Adam</text><line style="stroke:#181818;stroke-width:1.0;stroke-dasharray:2.0,2.0;" x1="71.5" x2="113.5" y1="149.4799" y2="149.4799"/><line style="stroke:#181818;stroke-width:1.0;stroke-dasharray:2.0,2.0;" x1="113.5" x2="113.5" y1="149.4799" y2="162.4799"/><line style="stroke:#181818;stroke-width:1.0;stroke-dasharray:2.0,2.0;" x1="72.5" x2="113.5" y1="162.4799" y2="162.4799"/><polygon fill="#181818" points="82.5,158.4799,72.5,162.4799,82.5,166.4799,78.5,162.4799" style="stroke:#181818;stroke-width:1.0;"/><text fill="#000000" font-family="sans-serif" font-size="13" lengthAdjust="spacing" textLength="82" x="78.5" y="143.6709">status Invited</text><polygon fill="#181818" points="82.5,190.186,72.5,194.186,82.5,198.186,78.5,194.186" style="stroke:#181818;stroke-width:1.0;"/><line style="stroke:#181818;stroke-width:1.0;stroke-dasharray:2.0,2.0;" x1="76.5" x2="546.5" y1="194.186" y2="194.186"/><text fill="#000000" font-family="sans-serif" font-size="13" lengthAdjust="spacing" textLength="76" x="88.5" y="188.377">smith accept</text><line style="stroke:#181818;stroke-width:1.0;stroke-dasharray:2.0,2.0;" x1="71.5" x2="113.5" y1="225.892" y2="225.892"/><line style="stroke:#181818;stroke-width:1.0;stroke-dasharray:2.0,2.0;" x1="113.5" x2="113.5" y1="225.892" y2="238.892"/><line style="stroke:#181818;stroke-width:1.0;stroke-dasharray:2.0,2.0;" x1="72.5" x2="113.5" y1="238.892" y2="238.892"/><polygon fill="#181818" points="82.5,234.892,72.5,238.892,82.5,242.892,78.5,238.892" style="stroke:#181818;stroke-width:1.0;"/><text fill="#000000" font-family="sans-serif" font-size="13" lengthAdjust="spacing" textLength="90" x="78.5" y="220.083">status Pending</text><polygon fill="#181818" points="82.5,266.598,72.5,270.598,82.5,274.598,78.5,270.598" style="stroke:#181818;stroke-width:1.0;"/><line style="stroke:#181818;stroke-width:1.0;stroke-dasharray:2.0,2.0;" x1="76.5" x2="593.5" y1="270.598" y2="270.598"/><text fill="#000000" font-family="sans-serif" font-size="13" lengthAdjust="spacing" textLength="98" x="88.5" y="264.789">smith cert Adam</text><polygon fill="#181818" points="82.5,298.304,72.5,302.304,82.5,306.304,78.5,302.304" style="stroke:#181818;stroke-width:1.0;"/><line style="stroke:#181818;stroke-width:1.0;stroke-dasharray:2.0,2.0;" x1="76.5" x2="634" y1="302.304" y2="302.304"/><text fill="#000000" font-family="sans-serif" font-size="13" lengthAdjust="spacing" textLength="98" x="88.5" y="296.495">smith cert Adam</text><line style="stroke:#181818;stroke-width:1.0;stroke-dasharray:2.0,2.0;" x1="71.5" x2="113.5" y1="334.01" y2="334.01"/><line style="stroke:#181818;stroke-width:1.0;stroke-dasharray:2.0,2.0;" x1="113.5" x2="113.5" y1="334.01" y2="347.01"/><line style="stroke:#181818;stroke-width:1.0;stroke-dasharray:2.0,2.0;" x1="72.5" x2="113.5" y1="347.01" y2="347.01"/><polygon fill="#181818" points="82.5,343.01,72.5,347.01,82.5,351.01,78.5,347.01" style="stroke:#181818;stroke-width:1.0;"/><text fill="#000000" font-family="sans-serif" font-size="13" lengthAdjust="spacing" textLength="187" x="78.5" y="328.201">event SmithMembershipAdded</text><line style="stroke:#181818;stroke-width:1.0;stroke-dasharray:2.0,2.0;" x1="71.5" x2="113.5" y1="378.716" y2="378.716"/><line style="stroke:#181818;stroke-width:1.0;stroke-dasharray:2.0,2.0;" x1="113.5" x2="113.5" y1="378.716" y2="391.716"/><line style="stroke:#181818;stroke-width:1.0;stroke-dasharray:2.0,2.0;" x1="72.5" x2="113.5" y1="391.716" y2="391.716"/><polygon fill="#181818" points="82.5,387.716,72.5,391.716,82.5,395.716,78.5,391.716" style="stroke:#181818;stroke-width:1.0;"/><text fill="#000000" font-family="sans-serif" font-size="13" lengthAdjust="spacing" textLength="75" x="78.5" y="372.907">status Smith</text><polygon fill="#181818" points="831.5,419.4221,841.5,423.4221,831.5,427.4221,835.5,423.4221" style="stroke:#181818;stroke-width:1.0;"/><line style="stroke:#181818;stroke-width:1.0;stroke-dasharray:2.0,2.0;" x1="547.5" x2="837.5" y1="423.4221" y2="423.4221"/><text fill="#000000" font-family="sans-serif" font-size="13" lengthAdjust="spacing" textLength="272" x="554.5" y="417.6131">smith rotate-keys &lt;keys&gt; (generate new keys)</text><line style="stroke:#181818;stroke-width:1.0;stroke-dasharray:2.0,2.0;" x1="843.5" x2="885.5" y1="455.1281" y2="455.1281"/><line style="stroke:#181818;stroke-width:1.0;stroke-dasharray:2.0,2.0;" x1="885.5" x2="885.5" y1="455.1281" y2="468.1281"/><line style="stroke:#181818;stroke-width:1.0;stroke-dasharray:2.0,2.0;" x1="844.5" x2="885.5" y1="468.1281" y2="468.1281"/><polygon fill="#181818" points="854.5,464.1281,844.5,468.1281,854.5,472.1281,850.5,468.1281" style="stroke:#181818;stroke-width:1.0;"/><text fill="#000000" font-family="sans-serif" font-size="13" lengthAdjust="spacing" textLength="243" x="850.5" y="449.3191">create new keys (on keystore file system)</text><polygon fill="#181818" points="82.5,495.8341,72.5,499.8341,82.5,503.8341,78.5,499.8341" style="stroke:#181818;stroke-width:1.0;"/><line style="stroke:#181818;stroke-width:1.0;stroke-dasharray:2.0,2.0;" x1="76.5" x2="546.5" y1="499.8341" y2="499.8341"/><text fill="#000000" font-family="sans-serif" font-size="13" lengthAdjust="spacing" textLength="452" x="88.5" y="494.0251">smith set-session-keys &lt;keys&gt;  (extrinsic authorityMembers.setSessionKeys)</text><line style="stroke:#181818;stroke-width:1.0;stroke-dasharray:2.0,2.0;" x1="71.5" x2="113.5" y1="531.5401" y2="531.5401"/><line style="stroke:#181818;stroke-width:1.0;stroke-dasharray:2.0,2.0;" x1="113.5" x2="113.5" y1="531.5401" y2="544.5401"/><line style="stroke:#181818;stroke-width:1.0;stroke-dasharray:2.0,2.0;" x1="72.5" x2="113.5" y1="544.5401" y2="544.5401"/><polygon fill="#181818" points="82.5,540.5401,72.5,544.5401,82.5,548.5401,78.5,544.5401" style="stroke:#181818;stroke-width:1.0;"/><text fill="#000000" font-family="sans-serif" font-size="13" lengthAdjust="spacing" textLength="319" x="78.5" y="525.7311">expiresOn = 3 semaines (smithInactivityMaxDuration)</text><polygon fill="#181818" points="82.5,572.2461,72.5,576.2461,82.5,580.2461,78.5,576.2461" style="stroke:#181818;stroke-width:1.0;"/><line style="stroke:#181818;stroke-width:1.0;stroke-dasharray:2.0,2.0;" x1="76.5" x2="546.5" y1="576.2461" y2="576.2461"/><text fill="#000000" font-family="sans-serif" font-size="13" lengthAdjust="spacing" textLength="94" x="88.5" y="570.4371">smith go-online</text><line style="stroke:#181818;stroke-width:1.0;stroke-dasharray:2.0,2.0;" x1="71.5" x2="113.5" y1="607.9521" y2="607.9521"/><line style="stroke:#181818;stroke-width:1.0;stroke-dasharray:2.0,2.0;" x1="113.5" x2="113.5" y1="607.9521" y2="620.9521"/><line style="stroke:#181818;stroke-width:1.0;stroke-dasharray:2.0,2.0;" x1="72.5" x2="113.5" y1="620.9521" y2="620.9521"/><polygon fill="#181818" points="82.5,616.9521,72.5,620.9521,82.5,624.9521,78.5,620.9521" style="stroke:#181818;stroke-width:1.0;"/><text fill="#000000" font-family="sans-serif" font-size="13" lengthAdjust="spacing" textLength="90" x="78.5" y="602.1431">expiresOn=null</text><polygon fill="#181818" points="82.5,648.6582,72.5,652.6582,82.5,656.6582,78.5,652.6582" style="stroke:#181818;stroke-width:1.0;"/><line style="stroke:#181818;stroke-width:1.0;stroke-dasharray:2.0,2.0;" x1="76.5" x2="546.5" y1="652.6582" y2="652.6582"/><text fill="#000000" font-family="sans-serif" font-size="13" lengthAdjust="spacing" textLength="34" x="88.5" y="646.8492">smith</text><polygon fill="#181818" points="82.5,680.3642,72.5,684.3642,82.5,688.3642,78.5,684.3642" style="stroke:#181818;stroke-width:1.0;"/><line style="stroke:#181818;stroke-width:1.0;" x1="76.5" x2="460.5" y1="684.3642" y2="684.3642"/><text fill="#000000" font-family="sans-serif" font-size="13" lengthAdjust="spacing" textLength="366" x="88.5" y="678.5552">go-offline (reason: offlineToLong, OfflineTooLong, Blacklisted)</text><line style="stroke:#181818;stroke-width:1.0;stroke-dasharray:2.0,2.0;" x1="71.5" x2="113.5" y1="716.0702" y2="716.0702"/><line style="stroke:#181818;stroke-width:1.0;stroke-dasharray:2.0,2.0;" x1="113.5" x2="113.5" y1="716.0702" y2="729.0702"/><line style="stroke:#181818;stroke-width:1.0;stroke-dasharray:2.0,2.0;" x1="72.5" x2="113.5" y1="729.0702" y2="729.0702"/><polygon fill="#181818" points="82.5,725.0702,72.5,729.0702,82.5,733.0702,78.5,729.0702" style="stroke:#181818;stroke-width:1.0;"/><text fill="#000000" font-family="sans-serif" font-size="13" lengthAdjust="spacing" textLength="319" x="78.5" y="710.2612">expiresOn = 3 semaines (smithInactivityMaxDuration)</text></g></svg>