<?xml version="1.0" encoding="UTF-8" standalone="no"?><svg xmlns="http://www.w3.org/2000/svg" xmlns:xlink="http://www.w3.org/1999/xlink" contentStyleType="text/css" height="511px" preserveAspectRatio="none" style="width:590px;height:511px;background:#FFFFFF;" version="1.1" viewBox="0 0 590 511" width="590px" zoomAndPan="magnify"><defs/><g><line style="stroke:#181818;stroke-width:0.5;stroke-dasharray:5.0,5.0;" x1="33" x2="33" y1="84.0679" y2="428.4221"/><line style="stroke:#181818;stroke-width:0.5;stroke-dasharray:5.0,5.0;" x1="207.5" x2="207.5" y1="84.0679" y2="428.4221"/><line style="stroke:#181818;stroke-width:0.5;stroke-dasharray:5.0,5.0;" x1="250.5" x2="250.5" y1="84.0679" y2="428.4221"/><line style="stroke:#181818;stroke-width:0.5;stroke-dasharray:5.0,5.0;" x1="291.5" x2="291.5" y1="84.0679" y2="428.4221"/><line style="stroke:#181818;stroke-width:0.5;stroke-dasharray:5.0,5.0;" x1="343.5" x2="343.5" y1="84.0679" y2="428.4221"/><line style="stroke:#181818;stroke-width:0.5;stroke-dasharray:5.0,5.0;" x1="405.5" x2="405.5" y1="84.0679" y2="428.4221"/><line style="stroke:#181818;stroke-width:0.5;stroke-dasharray:5.0,5.0;" x1="545.5" x2="545.5" y1="84.0679" y2="428.4221"/><text fill="#000000" font-family="sans-serif" font-size="14" lengthAdjust="spacing" textLength="51" x="5" y="79.9659">Duniter</text><path d="M15.5,29 C15.5,19 33.5,19 33.5,19 C33.5,19 51.5,19 51.5,29 L51.5,55 C51.5,65 33.5,65 33.5,65 C33.5,65 15.5,65 15.5,55 L15.5,29 " fill="#E2E2F0" style="stroke:#181818;stroke-width:1.5;"/><path d="M15.5,29 C15.5,39 33.5,39 33.5,39 C33.5,39 51.5,39 51.5,29 " fill="none" style="stroke:#181818;stroke-width:1.5;"/><text fill="#000000" font-family="sans-serif" font-size="14" lengthAdjust="spacing" textLength="51" x="5" y="442.388">Duniter</text><path d="M15.5,456.49 C15.5,446.49 33.5,446.49 33.5,446.49 C33.5,446.49 51.5,446.49 51.5,456.49 L51.5,482.49 C51.5,492.49 33.5,492.49 33.5,492.49 C33.5,492.49 15.5,492.49 15.5,482.49 L15.5,456.49 " fill="#E2E2F0" style="stroke:#181818;stroke-width:1.5;"/><path d="M15.5,456.49 C15.5,466.49 33.5,466.49 33.5,466.49 C33.5,466.49 51.5,466.49 51.5,456.49 " fill="none" style="stroke:#181818;stroke-width:1.5;"/><text fill="#000000" font-family="sans-serif" font-size="14" lengthAdjust="spacing" textLength="32" x="188.5" y="79.9659">Alice</text><ellipse cx="207.5" cy="13.5" fill="#E2E2F0" rx="8" ry="8" style="stroke:#181818;stroke-width:0.5;"/><path d="M207.5,21.5 L207.5,48.5 M194.5,29.5 L220.5,29.5 M207.5,48.5 L194.5,63.5 M207.5,48.5 L220.5,63.5 " fill="none" style="stroke:#181818;stroke-width:0.5;"/><text fill="#000000" font-family="sans-serif" font-size="14" lengthAdjust="spacing" textLength="32" x="188.5" y="442.388">Alice</text><ellipse cx="207.5" cy="454.99" fill="#E2E2F0" rx="8" ry="8" style="stroke:#181818;stroke-width:0.5;"/><path d="M207.5,462.99 L207.5,489.99 M194.5,470.99 L220.5,470.99 M207.5,489.99 L194.5,504.99 M207.5,489.99 L220.5,504.99 " fill="none" style="stroke:#181818;stroke-width:0.5;"/><text fill="#000000" font-family="sans-serif" font-size="14" lengthAdjust="spacing" textLength="23" x="236.5" y="79.9659">Eve</text><ellipse cx="251" cy="13.5" fill="#E2E2F0" rx="8" ry="8" style="stroke:#181818;stroke-width:0.5;"/><path d="M251,21.5 L251,48.5 M238,29.5 L264,29.5 M251,48.5 L238,63.5 M251,48.5 L264,63.5 " fill="none" style="stroke:#181818;stroke-width:0.5;"/><text fill="#000000" font-family="sans-serif" font-size="14" lengthAdjust="spacing" textLength="23" x="236.5" y="442.388">Eve</text><ellipse cx="251" cy="454.99" fill="#E2E2F0" rx="8" ry="8" style="stroke:#181818;stroke-width:0.5;"/><path d="M251,462.99 L251,489.99 M238,470.99 L264,470.99 M251,489.99 L238,504.99 M251,489.99 L264,504.99 " fill="none" style="stroke:#181818;stroke-width:0.5;"/><text fill="#000000" font-family="sans-serif" font-size="14" lengthAdjust="spacing" textLength="26" x="275.5" y="79.9659">Bob</text><ellipse cx="291.5" cy="13.5" fill="#E2E2F0" rx="8" ry="8" style="stroke:#181818;stroke-width:0.5;"/><path d="M291.5,21.5 L291.5,48.5 M278.5,29.5 L304.5,29.5 M291.5,48.5 L278.5,63.5 M291.5,48.5 L304.5,63.5 " fill="none" style="stroke:#181818;stroke-width:0.5;"/><text fill="#000000" font-family="sans-serif" font-size="14" lengthAdjust="spacing" textLength="26" x="275.5" y="442.388">Bob</text><ellipse cx="291.5" cy="454.99" fill="#E2E2F0" rx="8" ry="8" style="stroke:#181818;stroke-width:0.5;"/><path d="M291.5,462.99 L291.5,489.99 M278.5,470.99 L304.5,470.99 M291.5,489.99 L278.5,504.99 M291.5,489.99 L304.5,504.99 " fill="none" style="stroke:#181818;stroke-width:0.5;"/><text fill="#000000" font-family="sans-serif" font-size="14" lengthAdjust="spacing" textLength="46" x="317.5" y="79.9659">Marcel</text><ellipse cx="343.5" cy="13.5" fill="#E2E2F0" rx="8" ry="8" style="stroke:#181818;stroke-width:0.5;"/><path d="M343.5,21.5 L343.5,48.5 M330.5,29.5 L356.5,29.5 M343.5,48.5 L330.5,63.5 M343.5,48.5 L356.5,63.5 " fill="none" style="stroke:#181818;stroke-width:0.5;"/><text fill="#000000" font-family="sans-serif" font-size="14" lengthAdjust="spacing" textLength="46" x="317.5" y="442.388">Marcel</text><ellipse cx="343.5" cy="454.99" fill="#E2E2F0" rx="8" ry="8" style="stroke:#181818;stroke-width:0.5;"/><path d="M343.5,462.99 L343.5,489.99 M330.5,470.99 L356.5,470.99 M343.5,489.99 L330.5,504.99 M343.5,489.99 L356.5,504.99 " fill="none" style="stroke:#181818;stroke-width:0.5;"/><text fill="#000000" font-family="sans-serif" font-size="14" lengthAdjust="spacing" textLength="46" x="379.5" y="79.9659">Sophie</text><ellipse cx="405.5" cy="13.5" fill="#E2E2F0" rx="8" ry="8" style="stroke:#181818;stroke-width:0.5;"/><path d="M405.5,21.5 L405.5,48.5 M392.5,29.5 L418.5,29.5 M405.5,48.5 L392.5,63.5 M405.5,48.5 L418.5,63.5 " fill="none" style="stroke:#181818;stroke-width:0.5;"/><text fill="#000000" font-family="sans-serif" font-size="14" lengthAdjust="spacing" textLength="46" x="379.5" y="442.388">Sophie</text><ellipse cx="405.5" cy="454.99" fill="#E2E2F0" rx="8" ry="8" style="stroke:#181818;stroke-width:0.5;"/><path d="M405.5,462.99 L405.5,489.99 M392.5,470.99 L418.5,470.99 M405.5,489.99 L392.5,504.99 M405.5,489.99 L418.5,504.99 " fill="none" style="stroke:#181818;stroke-width:0.5;"/><text fill="#000000" font-family="sans-serif" font-size="14" lengthAdjust="spacing" textLength="82" x="501.5" y="79.9659">AnyMember</text><ellipse cx="545.5" cy="13.5" fill="#E2E2F0" rx="8" ry="8" style="stroke:#181818;stroke-width:0.5;"/><path d="M545.5,21.5 L545.5,48.5 M532.5,29.5 L558.5,29.5 M545.5,48.5 L532.5,63.5 M545.5,48.5 L558.5,63.5 " fill="none" style="stroke:#181818;stroke-width:0.5;"/><text fill="#000000" font-family="sans-serif" font-size="14" lengthAdjust="spacing" textLength="82" x="501.5" y="442.388">AnyMember</text><ellipse cx="545.5" cy="454.99" fill="#E2E2F0" rx="8" ry="8" style="stroke:#181818;stroke-width:0.5;"/><path d="M545.5,462.99 L545.5,489.99 M532.5,470.99 L558.5,470.99 M545.5,489.99 L532.5,504.99 M545.5,489.99 L558.5,504.99 " fill="none" style="stroke:#181818;stroke-width:0.5;"/><polygon fill="#181818" points="44.5,113.7739,34.5,117.7739,44.5,121.7739,40.5,117.7739" style="stroke:#181818;stroke-width:1.0;"/><line style="stroke:#181818;stroke-width:1.0;stroke-dasharray:2.0,2.0;" x1="38.5" x2="206.5" y1="117.7739" y2="117.7739"/><text fill="#000000" font-family="sans-serif" font-size="13" lengthAdjust="spacing" textLength="150" x="50.5" y="111.9649">identity create &lt;address&gt;</text><line style="stroke:#181818;stroke-width:1.0;stroke-dasharray:2.0,2.0;" x1="33.5" x2="75.5" y1="149.4799" y2="149.4799"/><line style="stroke:#181818;stroke-width:1.0;stroke-dasharray:2.0,2.0;" x1="75.5" x2="75.5" y1="149.4799" y2="162.4799"/><line style="stroke:#181818;stroke-width:1.0;stroke-dasharray:2.0,2.0;" x1="34.5" x2="75.5" y1="162.4799" y2="162.4799"/><polygon fill="#181818" points="44.5,158.4799,34.5,162.4799,44.5,166.4799,40.5,162.4799" style="stroke:#181818;stroke-width:1.0;"/><text fill="#000000" font-family="sans-serif" font-size="13" lengthAdjust="spacing" textLength="70" x="40.5" y="143.6709">idtyCreated</text><polygon fill="#181818" points="44.5,190.186,34.5,194.186,44.5,198.186,40.5,194.186" style="stroke:#181818;stroke-width:1.0;"/><line style="stroke:#181818;stroke-width:1.0;stroke-dasharray:2.0,2.0;" x1="38.5" x2="250" y1="194.186" y2="194.186"/><text fill="#000000" font-family="sans-serif" font-size="13" lengthAdjust="spacing" textLength="157" x="50.5" y="188.377">identity confirm &lt;pseudo&gt;</text><line style="stroke:#181818;stroke-width:1.0;stroke-dasharray:2.0,2.0;" x1="33.5" x2="75.5" y1="225.892" y2="225.892"/><line style="stroke:#181818;stroke-width:1.0;stroke-dasharray:2.0,2.0;" x1="75.5" x2="75.5" y1="225.892" y2="238.892"/><line style="stroke:#181818;stroke-width:1.0;stroke-dasharray:2.0,2.0;" x1="34.5" x2="75.5" y1="238.892" y2="238.892"/><polygon fill="#181818" points="44.5,234.892,34.5,238.892,44.5,242.892,40.5,238.892" style="stroke:#181818;stroke-width:1.0;"/><text fill="#000000" font-family="sans-serif" font-size="13" lengthAdjust="spacing" textLength="86" x="40.5" y="220.083">idtyConfirmed</text><polygon fill="#181818" points="44.5,266.598,34.5,270.598,44.5,274.598,40.5,270.598" style="stroke:#181818;stroke-width:1.0;"/><line style="stroke:#181818;stroke-width:1.0;stroke-dasharray:2.0,2.0;" x1="38.5" x2="290.5" y1="270.598" y2="270.598"/><text fill="#000000" font-family="sans-serif" font-size="13" lengthAdjust="spacing" textLength="188" x="50.5" y="264.789">identity cert &lt;pseudo|address&gt;</text><polygon fill="#181818" points="44.5,298.304,34.5,302.304,44.5,306.304,40.5,302.304" style="stroke:#181818;stroke-width:1.0;"/><line style="stroke:#181818;stroke-width:1.0;stroke-dasharray:2.0,2.0;" x1="38.5" x2="342.5" y1="302.304" y2="302.304"/><text fill="#000000" font-family="sans-serif" font-size="13" lengthAdjust="spacing" textLength="188" x="50.5" y="296.495">identity cert &lt;pseudo|address&gt;</text><polygon fill="#181818" points="44.5,330.01,34.5,334.01,44.5,338.01,40.5,334.01" style="stroke:#181818;stroke-width:1.0;"/><line style="stroke:#181818;stroke-width:1.0;stroke-dasharray:2.0,2.0;" x1="38.5" x2="404.5" y1="334.01" y2="334.01"/><text fill="#000000" font-family="sans-serif" font-size="13" lengthAdjust="spacing" textLength="188" x="50.5" y="328.201">identity cert &lt;pseudo|address&gt;</text><polygon fill="#181818" points="44.5,361.716,34.5,365.716,44.5,369.716,40.5,365.716" style="stroke:#181818;stroke-width:1.0;"/><line style="stroke:#181818;stroke-width:1.0;stroke-dasharray:2.0,2.0;" x1="38.5" x2="544.5" y1="365.716" y2="365.716"/><text fill="#000000" font-family="sans-serif" font-size="13" lengthAdjust="spacing" textLength="488" x="50.5" y="359.907">[identity request-distance-for &lt;pseudo|address&gt;, identity cert &lt;pseudo|address&gt;]</text><line style="stroke:#181818;stroke-width:1.0;stroke-dasharray:2.0,2.0;" x1="33.5" x2="75.5" y1="397.4221" y2="397.4221"/><line style="stroke:#181818;stroke-width:1.0;stroke-dasharray:2.0,2.0;" x1="75.5" x2="75.5" y1="397.4221" y2="410.4221"/><line style="stroke:#181818;stroke-width:1.0;stroke-dasharray:2.0,2.0;" x1="34.5" x2="75.5" y1="410.4221" y2="410.4221"/><polygon fill="#181818" points="44.5,406.4221,34.5,410.4221,44.5,414.4221,40.5,410.4221" style="stroke:#181818;stroke-width:1.0;"/><text fill="#000000" font-family="sans-serif" font-size="13" lengthAdjust="spacing" textLength="79" x="40.5" y="391.6131">idtyValidated</text></g></svg>